<mxfile host="app.diagrams.net" modified="2023-11-02T22:32:58.184Z" agent="Mozilla/5.0 (Macintosh; Intel Mac OS X 10_15_7) AppleWebKit/537.36 (KHTML, like Gecko) Chrome/118.0.0.0 Safari/537.36" etag="nnjjlRqT3wCOkxypYr0x" version="22.0.8" type="github">
  <diagram id="3228e29e-7158-1315-38df-8450db1d8a1d" name="Page-1">
    <mxGraphModel dx="1051" dy="541" grid="0" gridSize="10" guides="1" tooltips="1" connect="1" arrows="1" fold="1" page="1" pageScale="1" pageWidth="800" pageHeight="550" background="#EFF1F3" math="0" shadow="0">
      <root>
        <mxCell id="0" />
        <mxCell id="1" parent="0" />
        <mxCell id="BZtyihOMIc5ssDVvATIx-2" value="" style="shape=image;verticalLabelPosition=bottom;labelBackgroundColor=default;verticalAlign=top;aspect=fixed;imageAspect=0;image=data:image/svg+xml,PHN2ZyB4bWxuczp4bGluaz0iaHR0cDovL3d3dy53My5vcmcvMTk5OS94bGluayIgeG1sbnM9Imh0dHA6Ly93d3cudzMub3JnLzIwMDAvc3ZnIiBoZWlnaHQ9IjEyOCIgd2lkdGg9IjEyOCIgdmVyc2lvbj0iMS4xIiB2aWV3Qm94PSIwIDAgMTAyNCAxMDI0IiBjbGFzcz0iaWNvbiI+PHBhdGggZmlsbD0iIzRBOTE5QiIgZD0iTTc4OS4xOTY4IDc2Ny42MTA4OGgtMTYzLjkyMTkydjkzLjY3NTUyaDQ2LjgzNzc2YTIzLjQyOTEyIDIzLjQyOTEyIDAgMSAxIDAgNDYuODU4MjRIMzkxLjA4NjA4YTIzLjQyOTEyIDIzLjQyOTEyIDAgMSAxIDAtNDYuODU4MjRoNDYuODM3NzZ2LTkzLjY3NTUyaC0xODcuMzUxMDRhOTMuNjU1MDQgOTMuNjU1MDQgMCAwIDEtOTMuNjc1NTItOTMuNjU1MDRWMjUyLjM5NTUyYTkzLjY3NTUyIDkzLjY3NTUyIDAgMCAxIDkzLjY3NTUyLTkzLjY3NTUyaDUzOC42NDQ0OGE5My42OTYgOTMuNjk2IDAgMCAxIDkzLjY5NiA5My42NzU1MnY0MjEuNTYwMzJhOTMuNjk2IDkzLjY5NiAwIDAgMS05My43MTY0OCA5My42NTUwNHogbS0yMTAuNzU5NjggOTMuNjk2di05My42NzU1Mkg0ODQuNzYxNnY5My42NzU1Mmg5My42NzU1MnogbTI1Ny41OTc0NC02MDguOTExMzZhNDYuODE3MjggNDYuODE3MjggMCAwIDAtNDYuODM3NzYtNDYuODM3NzZIMjUwLjU1MjMyYTQ2LjgxNzI4IDQ2LjgxNzI4IDAgMCAwLTQ2LjgzNzc2IDQ2LjgzNzc2djMyNy44ODQ4aDYzMi4zMnYtMzI3Ljg4NDh6IG0wIDM3NC43MjI1NkgyMDMuNzE0NTZ2NDYuODM3NzZhNDYuODE3MjggNDYuODE3MjggMCAwIDAgNDYuODM3NzYgNDYuODE3MjhoNTM4LjY0NDQ4YTQ2LjgxNzI4IDQ2LjgxNzI4IDAgMCAwIDQ2LjgzNzc2LTQ2LjgxNzI4di00Ni44Mzc3NnogbTAgMCIvPjwvc3ZnPg==;" parent="1" vertex="1">
          <mxGeometry x="96" y="585" width="144" height="144" as="geometry" />
        </mxCell>
        <mxCell id="BZtyihOMIc5ssDVvATIx-3" value="" style="shape=image;verticalLabelPosition=bottom;labelBackgroundColor=default;verticalAlign=top;aspect=fixed;imageAspect=0;image=data:image/svg+xml,PHN2ZyB4bWxuczp4bGluaz0iaHR0cDovL3d3dy53My5vcmcvMTk5OS94bGluayIgeG1sbnM9Imh0dHA6Ly93d3cudzMub3JnLzIwMDAvc3ZnIiBoZWlnaHQ9IjEyOCIgd2lkdGg9IjEyOCIgdmVyc2lvbj0iMS4xIiB2aWV3Qm94PSIwIDAgMTAyNCAxMDI0IiBjbGFzcz0iaWNvbiI+PHBhdGggZmlsbD0iIzRBOTE5QiIgZD0iTTAgNzI4djEzNmMwIDM1LjMgMjguNyA2NCA2NCA2NGg4OTZjMzUuMyAwIDY0LTI4LjcgNjQtNjRWNzI4YzAtNC40LTMuNi04LTgtOEg4Yy00LjQgMC04IDMuNi04IDh6IG03NzQgOTZjMCA0LjQtMy42IDgtOCA4SDQyNGMtNC40IDAtOC0zLjYtOC04di00OGMwLTQuNCAzLjYtOCA4LThoMzQyYzQuNCAwIDggMy42IDggOHY0OHogbTEyMiAwYzAgNC40LTMuNiA4LTggOGgtNDhjLTQuNCAwLTgtMy42LTgtOHYtNDhjMC00LjQgMy42LTggOC04aDQ4YzQuNCAwIDggMy42IDggOHY0OHpNMCA1MzZ2MTQ0YzAgNC40IDMuNiA4IDggOGgxMDA4YzQuNCAwIDgtMy42IDgtOFY1MzZjMC00LjQtMy42LTgtOC04SDhjLTQuNCAwLTggMy42LTggOHogbTc3NCA5NmMwIDQuNC0zLjYgOC04IDhINDI0Yy00LjQgMC04LTMuNi04LTh2LTQ4YzAtNC40IDMuNi04IDgtOGgzNDJjNC40IDAgOCAzLjYgOCA4djQ4eiBtMTIyIDBjMCA0LjQtMy42IDgtOCA4aC00OGMtNC40IDAtOC0zLjYtOC04di00OGMwLTQuNCAzLjYtOCA4LThoNDhjNC40IDAgOCAzLjYgOCA4djQ4ek0wIDM0NHYxNDRjMCA0LjQgMy42IDggOCA4aDEwMDhjNC40IDAgOC0zLjYgOC04VjM0NGMwLTQuNC0zLjYtOC04LThIOGMtNC40IDAtOCAzLjYtOCA4eiBtNzc0IDk2YzAgNC40LTMuNiA4LTggOEg0MjRjLTQuNCAwLTgtMy42LTgtOHYtNDhjMC00LjQgMy42LTggOC04aDM0MmM0LjQgMCA4IDMuNiA4IDh2NDh6IG0xMjIgMGMwIDQuNC0zLjYgOC04IDhoLTQ4Yy00LjQgMC04LTMuNi04LTh2LTQ4YzAtNC40IDMuNi04IDgtOGg0OGM0LjQgMCA4IDMuNiA4IDh2NDh6TTk2MCA5Nkg2NGMtMzUuMyAwLTY0IDI4LjctNjQgNjR2MTM2YzAgNC40IDMuNiA4IDggOGgxMDA4YzQuNCAwIDgtMy42IDgtOFYxNjBjMC0zNS4zLTI4LjctNjQtNjQtNjR6TTc3NCAyNDhjMCA0LjQtMy42IDgtOCA4SDQyNGMtNC40IDAtOC0zLjYtOC04di00OGMwLTQuNCAzLjYtOCA4LThoMzQyYzQuNCAwIDggMy42IDggOHY0OHogbTEyMiAwYzAgNC40LTMuNiA4LTggOGgtNDhjLTQuNCAwLTgtMy42LTgtOHYtNDhjMC00LjQgMy42LTggOC04aDQ4YzQuNCAwIDggMy42IDggOHY0OHoiLz48L3N2Zz4=;" parent="1" vertex="1">
          <mxGeometry x="562" y="593" width="128" height="128" as="geometry" />
        </mxCell>
        <mxCell id="BZtyihOMIc5ssDVvATIx-4" value="&lt;font style=&quot;font-size: 23px;&quot;&gt;socket()&lt;/font&gt;" style="rounded=1;whiteSpace=wrap;html=1;fillColor=#FDD276;strokeColor=none;" parent="1" vertex="1">
          <mxGeometry x="108" y="730" width="120" height="60" as="geometry" />
        </mxCell>
        <mxCell id="BZtyihOMIc5ssDVvATIx-5" value="&lt;font style=&quot;font-size: 23px;&quot;&gt;connect()&lt;/font&gt;" style="rounded=1;whiteSpace=wrap;html=1;fillColor=#FDD276;strokeColor=none;" parent="1" vertex="1">
          <mxGeometry x="108" y="807" width="120" height="60" as="geometry" />
        </mxCell>
        <mxCell id="BZtyihOMIc5ssDVvATIx-6" value="&lt;font style=&quot;font-size: 23px;&quot;&gt;socket()&lt;/font&gt;" style="rounded=1;whiteSpace=wrap;html=1;fillColor=#FDD276;strokeColor=none;" parent="1" vertex="1">
          <mxGeometry x="566" y="727" width="120" height="60" as="geometry" />
        </mxCell>
        <mxCell id="BZtyihOMIc5ssDVvATIx-7" value="&lt;font style=&quot;font-size: 23px;&quot;&gt;bind()&lt;/font&gt;" style="rounded=1;whiteSpace=wrap;html=1;fillColor=#FDD276;strokeColor=none;" parent="1" vertex="1">
          <mxGeometry x="566" y="801" width="120" height="60" as="geometry" />
        </mxCell>
        <mxCell id="BZtyihOMIc5ssDVvATIx-8" value="&lt;font style=&quot;font-size: 23px;&quot;&gt;listen()&lt;/font&gt;" style="rounded=1;whiteSpace=wrap;html=1;fillColor=#FDD276;strokeColor=none;" parent="1" vertex="1">
          <mxGeometry x="566" y="884" width="120" height="60" as="geometry" />
        </mxCell>
        <mxCell id="BZtyihOMIc5ssDVvATIx-9" value="&lt;font style=&quot;font-size: 31px;&quot;&gt;fd&lt;/font&gt;" style="rounded=1;whiteSpace=wrap;html=1;fillColor=#9AC7BF;strokeColor=none;fontSize=31;" parent="1" vertex="1">
          <mxGeometry x="480" y="767.5" width="71" height="63.01" as="geometry" />
        </mxCell>
        <mxCell id="BZtyihOMIc5ssDVvATIx-11" value="" style="shape=flexArrow;endArrow=classic;html=1;rounded=0;fillColor=#9AC7BF;strokeColor=none;" parent="1" edge="1">
          <mxGeometry width="50" height="50" relative="1" as="geometry">
            <mxPoint x="707" y="720" as="sourcePoint" />
            <mxPoint x="708" y="1061" as="targetPoint" />
          </mxGeometry>
        </mxCell>
        <mxCell id="BZtyihOMIc5ssDVvATIx-12" value="&lt;font style=&quot;font-size: 26px;&quot;&gt;执行顺序&lt;/font&gt;" style="text;strokeColor=none;fillColor=none;align=left;verticalAlign=middle;spacingLeft=4;spacingRight=4;overflow=hidden;points=[[0,0.5],[1,0.5]];portConstraint=eastwest;rotatable=0;whiteSpace=wrap;html=1;" parent="1" vertex="1">
          <mxGeometry x="716.43" y="721" width="35" height="196" as="geometry" />
        </mxCell>
        <mxCell id="BZtyihOMIc5ssDVvATIx-13" value="" style="shape=flexArrow;endArrow=classic;startArrow=block;html=1;rounded=0;fillColor=#9AC7BF;strokeColor=none;startFill=0;" parent="1" edge="1">
          <mxGeometry width="100" height="100" relative="1" as="geometry">
            <mxPoint x="328" y="798.2899999999998" as="sourcePoint" />
            <mxPoint x="468" y="798.2899999999998" as="targetPoint" />
          </mxGeometry>
        </mxCell>
        <mxCell id="BZtyihOMIc5ssDVvATIx-14" value="&lt;font style=&quot;font-size: 31px;&quot;&gt;fd&lt;/font&gt;" style="rounded=1;whiteSpace=wrap;html=1;fillColor=#9AC7BF;strokeColor=none;fontSize=31;" parent="1" vertex="1">
          <mxGeometry x="245" y="767.5" width="71" height="63.01" as="geometry" />
        </mxCell>
        <mxCell id="LN1lGvwgba4sNQ08N5yY-1" value="&lt;span style=&quot;font-size: 23px;&quot;&gt;accept()&lt;/span&gt;" style="rounded=1;whiteSpace=wrap;html=1;fillColor=#FDD276;strokeColor=none;" vertex="1" parent="1">
          <mxGeometry x="566" y="967" width="120" height="60" as="geometry" />
        </mxCell>
        <mxCell id="LN1lGvwgba4sNQ08N5yY-2" value="&lt;font style=&quot;font-size: 26px;&quot;&gt;建立连接&lt;/font&gt;" style="text;strokeColor=none;fillColor=none;align=left;verticalAlign=middle;spacingLeft=4;spacingRight=4;overflow=hidden;points=[[0,0.5],[1,0.5]];portConstraint=eastwest;rotatable=0;whiteSpace=wrap;html=1;" vertex="1" parent="1">
          <mxGeometry x="342.5" y="733.5" width="115" height="47" as="geometry" />
        </mxCell>
      </root>
    </mxGraphModel>
  </diagram>
</mxfile>
